<svg width="671" height="463" viewBox="0 0 671 463" fill="none" xmlns="http://www.w3.org/2000/svg">
<g opacity="0.1">
<path d="M59.3136 26.4972H68.9414V36.2469H59.3136V26.4972Z" fill="#2770F1"/>
<path d="M55.4136 346.072V334.853H44.3344V346.072H55.4136ZM53.9622 336.322V344.602H45.7857V336.322H53.9622Z" fill="#2770F1"/>
<g style="mix-blend-mode:overlay">
<path d="M-8.96454e-05 366.031H9.62769V375.781H-8.96454e-05V366.031Z" fill="#2770F1"/>
</g>
<path d="M103.959 87.3843H113.586V97.134H103.959V87.3843Z" fill="#2770F1"/>
<path d="M401.255 11.2194V0H390.176V11.2194H401.255ZM399.804 1.46971V9.7497H391.627V1.46971H399.804Z" fill="#2770F1"/>
<path d="M431.315 11.2194V0H420.236V11.2194H431.315ZM429.864 1.46971V9.7497H421.687V1.46971H429.864Z" fill="#2770F1"/>
<path d="M431.315 26.4427V15.2233H420.236V26.4427H431.315ZM429.864 16.693V24.973H421.687V16.693H429.864Z" fill="#2770F1"/>
<path d="M401.255 41.66V30.4406H390.176V41.66H401.255ZM399.804 31.9103V40.1903H391.627V31.9103H399.804Z" fill="#2770F1"/>
<path d="M390.899 46.3957H400.526V56.1454H390.899V46.3957Z" fill="#2770F1"/>
<path d="M420.958 46.3957H430.586V56.1454H420.958V46.3957Z" fill="#2770F1"/>
<path d="M390.899 61.6191H400.526V71.3688H390.899V61.6191Z" fill="#2770F1"/>
<path d="M405.932 61.6191H415.559V71.3688H405.932V61.6191Z" fill="#2770F1"/>
<path d="M420.958 61.6191H430.586V71.3688H420.958V61.6191Z" fill="#2770F1"/>
<path d="M150.413 76.8364H160.041V86.5861H150.413V76.8364Z" fill="#2770F1"/>
<path d="M405.932 76.8364H415.559V86.5861H405.932V76.8364Z" fill="#2770F1"/>
<path d="M190.83 102.541V91.3218H179.75V102.541H190.83ZM189.378 92.7915V101.072H181.202V92.7915H189.378Z" fill="#2770F1"/>
<path d="M220.889 102.541V91.3218H209.81V102.541H220.889ZM219.438 92.7915V101.072H211.262V92.7915H219.438Z" fill="#2770F1"/>
<path d="M250.949 102.541V91.3218H239.87V102.541H250.949ZM249.498 92.7915V101.072H241.322V92.7915H249.498Z" fill="#2770F1"/>
<path d="M345.806 92.0597H355.433V101.809H345.806V92.0597Z" fill="#2770F1"/>
<path d="M360.839 92.0597H370.466V101.809H360.839V92.0597Z" fill="#2770F1"/>
<path d="M390.899 92.0597H400.526V101.809H390.899V92.0597Z" fill="#2770F1"/>
<path d="M405.932 92.0597H415.559V101.809H405.932V92.0597Z" fill="#2770F1"/>
<path d="M420.958 92.0597H430.586V101.809H420.958V92.0597Z" fill="#2770F1"/>
<path d="M175.797 117.765V106.545H164.718V117.765H175.797ZM174.345 108.015V116.295H166.169V108.015H174.345Z" fill="#2770F1"/>
<path d="M220.889 117.765V106.545H209.81V117.765H220.889ZM219.438 108.015V116.295H211.262V108.015H219.438Z" fill="#2770F1"/>
<path d="M330.779 107.277H340.406V117.027H330.779V107.277Z" fill="#2770F1"/>
<path d="M345.806 107.277H355.433V117.027H345.806V107.277Z" fill="#2770F1"/>
<path d="M405.932 107.277H415.559V117.027H405.932V107.277Z" fill="#2770F1"/>
<path d="M420.958 107.277H430.586V117.027H420.958V107.277Z" fill="#2770F1"/>
<path d="M511.144 107.277H520.772V117.027H511.144V107.277Z" fill="#2770F1"/>
<path d="M526.171 107.277H535.799V117.027H526.171V107.277Z" fill="#2770F1"/>
<path d="M120.353 122.5H129.981V132.25H120.353V122.5Z" fill="#2770F1"/>
<path d="M135.386 122.5H145.014V132.25H135.386V122.5Z" fill="#2770F1"/>
<path d="M150.413 122.5H160.041V132.25H150.413V122.5Z" fill="#2770F1"/>
<path d="M165.446 122.5H175.074V132.25H165.446V122.5Z" fill="#2770F1"/>
<path d="M180.473 122.5H190.101V132.25H180.473V122.5Z" fill="#2770F1"/>
<path d="M195.506 122.5H205.134V132.25H195.506V122.5Z" fill="#2770F1"/>
<path d="M210.539 122.5H220.167V132.25H210.539V122.5Z" fill="#2770F1"/>
<path d="M225.566 122.5H235.194V132.25H225.566V122.5Z" fill="#2770F1"/>
<path d="M240.599 122.5H250.227V132.25H240.599V122.5Z" fill="#2770F1"/>
<path d="M435.991 122.5H445.619V132.25H435.991V122.5Z" fill="#2770F1"/>
<path d="M451.018 122.5H460.646V132.25H451.018V122.5Z" fill="#2770F1"/>
<path d="M481.078 122.5H490.706V132.25H481.078V122.5Z" fill="#2770F1"/>
<path d="M496.111 122.5H505.739V132.25H496.111V122.5Z" fill="#2770F1"/>
<path d="M511.144 122.5H520.772V132.25H511.144V122.5Z" fill="#2770F1"/>
<path d="M160.77 148.205V136.986H149.69V148.205H160.77ZM159.318 138.455V146.735H151.142V138.455H159.318Z" fill="#2770F1"/>
<path d="M165.446 137.724H175.074V147.473H165.446V137.724Z" fill="#2770F1"/>
<path d="M195.506 137.724H205.134V147.473H195.506V137.724Z" fill="#2770F1"/>
<path d="M225.566 137.724H235.194V147.473H225.566V137.724Z" fill="#2770F1"/>
<path d="M240.599 137.724H250.227V147.473H240.599V137.724Z" fill="#2770F1"/>
<path d="M451.018 137.724H460.646V147.473H451.018V137.724Z" fill="#2770F1"/>
<path d="M466.051 137.724H475.679V147.473H466.051V137.724Z" fill="#2770F1"/>
<path d="M481.078 137.724H490.706V147.473H481.078V137.724Z" fill="#2770F1"/>
<path d="M180.473 152.941H190.101V162.69H180.473V152.941Z" fill="#2770F1"/>
<path d="M195.506 152.941H205.134V162.69H195.506V152.941Z" fill="#2770F1"/>
<path d="M240.599 152.941H250.227V162.69H240.599V152.941Z" fill="#2770F1"/>
<path d="M416.282 163.429V152.209H405.203V163.429H416.282ZM414.831 153.679V161.959H406.654V153.679H414.831Z" fill="#2770F1"/>
<path d="M420.958 152.941H430.586V162.69H420.958V152.941Z" fill="#2770F1"/>
<path d="M435.991 152.941H445.619V162.69H435.991V152.941Z" fill="#2770F1"/>
<path d="M451.018 152.941H460.646V162.69H451.018V152.941Z" fill="#2770F1"/>
<path d="M165.446 168.164H175.074V177.914H165.446V168.164Z" fill="#2770F1"/>
<path d="M225.566 168.164H235.194V177.914H225.566V168.164Z" fill="#2770F1"/>
<path d="M401.255 178.646V167.426H390.176V178.646H401.255ZM399.804 168.896V177.176H391.627V168.896H399.804Z" fill="#2770F1"/>
<path d="M420.958 168.164H430.586V177.914H420.958V168.164Z" fill="#2770F1"/>
<path d="M435.991 168.164H445.619V177.914H435.991V168.164Z" fill="#2770F1"/>
<path d="M451.018 168.164H460.646V177.914H451.018V168.164Z" fill="#2770F1"/>
<path d="M476.402 178.646V167.426H465.323V178.646H476.402ZM474.951 168.896V177.176H466.774V168.896H474.951Z" fill="#2770F1"/>
<path d="M481.078 168.164H490.706V177.914H481.078V168.164Z" fill="#2770F1"/>
<path d="M496.111 168.164H505.739V177.914H496.111V168.164Z" fill="#2770F1"/>
<path d="M511.144 168.164H520.772V177.914H511.144V168.164Z" fill="#2770F1"/>
<path d="M526.171 168.164H535.799V177.914H526.171V168.164Z" fill="#2770F1"/>
<path d="M401.255 193.869V182.65H390.176V193.869H401.255ZM399.804 184.119V192.399H391.627V184.119H399.804Z" fill="#2770F1"/>
<path d="M416.282 193.869V182.65H405.203V193.869H416.282ZM414.831 184.119V192.399H406.654V184.119H414.831Z" fill="#2770F1"/>
<path d="M420.958 183.381H430.586V193.131H420.958V183.381Z" fill="#2770F1"/>
<g style="mix-blend-mode:overlay">
<path d="M451.018 183.381H460.646V193.131H451.018V183.381Z" fill="#2770F1"/>
</g>
<g style="mix-blend-mode:overlay">
<path d="M460.736 193.222V183.291H450.929V193.222H460.736ZM460.557 183.472V193.04H451.114V183.472H460.557Z" fill="#2770F1"/>
</g>
<g style="mix-blend-mode:overlay">
<path d="M481.079 183.381H490.706V193.131H481.079V183.381Z" fill="#2770F1"/>
</g>
<g style="mix-blend-mode:overlay">
<path d="M490.802 193.222V183.291H480.995V193.222H490.802ZM490.623 183.472V193.04H481.174V183.472H490.623Z" fill="#2770F1"/>
</g>
<g style="mix-blend-mode:overlay">
<path d="M496.111 183.381H505.739V193.131H496.111V183.381Z" fill="#2770F1"/>
</g>
<g style="mix-blend-mode:overlay">
<path d="M505.829 193.222V183.291H496.022V193.222H505.829ZM505.649 183.472V193.04H496.201V183.472H505.649Z" fill="#2770F1"/>
</g>
<path d="M135.386 198.605H145.014V208.354H135.386V198.605Z" fill="#2770F1"/>
<path d="M150.413 198.605H160.041V208.354H150.413V198.605Z" fill="#2770F1"/>
<path d="M175.797 209.086V197.867H164.718V209.086H175.797ZM174.345 199.337V207.617H166.169V199.337H174.345Z" fill="#2770F1"/>
<path d="M190.83 209.086V197.867H179.75V209.086H190.83ZM189.378 199.337V207.617H181.202V199.337H189.378Z" fill="#2770F1"/>
<path d="M195.506 198.605H205.134V208.354H195.506V198.605Z" fill="#2770F1"/>
<path d="M225.566 198.605H235.194V208.354H225.566V198.605Z" fill="#2770F1"/>
<path d="M240.599 198.605H250.227V208.354H240.599V198.605Z" fill="#2770F1"/>
<path d="M401.255 209.086V197.867H390.176V209.086H401.255ZM399.804 199.337V207.617H391.627V199.337H399.804Z" fill="#2770F1"/>
<path d="M416.282 209.086V197.867H405.203V209.086H416.282ZM414.831 199.337V207.617H406.654V199.337H414.831Z" fill="#2770F1"/>
<path d="M420.958 198.605H430.586V208.354H420.958V198.605Z" fill="#2770F1"/>
<g style="mix-blend-mode:overlay">
<path d="M435.991 198.604H445.619V208.354H435.991V198.604Z" fill="#2770F1"/>
</g>
<g style="mix-blend-mode:overlay">
<path d="M445.709 208.445V198.514H435.902V208.445H445.709ZM445.53 198.695V208.258H436.081V198.695H445.53Z" fill="#2770F1"/>
</g>
<g style="mix-blend-mode:overlay">
<path d="M451.018 198.604H460.646V208.354H451.018V198.604Z" fill="#2770F1"/>
</g>
<g style="mix-blend-mode:overlay">
<path d="M460.736 208.445V198.514H450.929V208.445H460.736ZM460.557 198.695V208.258H451.114V198.695H460.557Z" fill="#2770F1"/>
</g>
<g style="mix-blend-mode:overlay">
<path d="M466.051 198.604H475.679V208.354H466.051V198.604Z" fill="#2770F1"/>
</g>
<g style="mix-blend-mode:overlay">
<path d="M475.769 208.445V198.514H465.962V208.445H475.769ZM475.59 198.695V208.258H466.147V198.695H475.59Z" fill="#2770F1"/>
</g>
<g style="mix-blend-mode:overlay">
<path d="M481.079 198.604H490.706V208.354H481.079V198.604Z" fill="#2770F1"/>
</g>
<g style="mix-blend-mode:overlay">
<path d="M490.802 208.445V198.514H480.995V208.445H490.802ZM490.623 198.695V208.258H481.174V198.695H490.623Z" fill="#2770F1"/>
</g>
<path d="M586.291 198.605H595.919V208.354H586.291V198.605Z" fill="#2770F1"/>
<path d="M150.413 213.822H160.041V223.572H150.413V213.822Z" fill="#2770F1"/>
<path d="M195.506 213.822H205.134V223.572H195.506V213.822Z" fill="#2770F1"/>
<path d="M240.599 213.822H250.227V223.572H240.599V213.822Z" fill="#2770F1"/>
<path d="M255.626 213.822H265.254V223.572H255.626V213.822Z" fill="#2770F1"/>
<path d="M270.659 213.822H280.287V223.572H270.659V213.822Z" fill="#2770F1"/>
<g style="mix-blend-mode:overlay">
<path d="M451.018 213.822H460.646V223.571H451.018V213.822Z" fill="#2770F1"/>
</g>
<g style="mix-blend-mode:overlay">
<path d="M460.736 223.662V213.731H450.929V223.662H460.736ZM460.557 213.913V223.481H451.114V213.913H460.557Z" fill="#2770F1"/>
</g>
<g style="mix-blend-mode:overlay">
<path d="M466.051 213.822H475.679V223.571H466.051V213.822Z" fill="#2770F1"/>
</g>
<g style="mix-blend-mode:overlay">
<path d="M475.769 223.662V213.731H465.962V223.662H475.769ZM475.59 213.913V223.481H466.147V213.913H475.59Z" fill="#2770F1"/>
</g>
<path d="M556.231 213.822H565.859V223.572H556.231V213.822Z" fill="#2770F1"/>
<path d="M568.983 211.518H578.61V221.267H568.983V211.518Z" fill="#2770F1"/>
<path d="M586.291 213.822H595.919V223.572H586.291V213.822Z" fill="#2770F1"/>
<path d="M165.446 229.045H175.074V238.795H165.446V229.045Z" fill="#2770F1"/>
<path d="M180.473 229.045H190.101V238.795H180.473V229.045Z" fill="#2770F1"/>
<path d="M210.539 229.045H220.167V238.795H210.539V229.045Z" fill="#2770F1"/>
<path d="M270.659 229.045H280.287V238.795H270.659V229.045Z" fill="#2770F1"/>
<path d="M476.402 239.527V228.308H465.323V239.527H476.402ZM474.951 229.777V238.057H466.774V229.777H474.951Z" fill="#2770F1"/>
<path d="M491.435 239.527V228.308H480.356V239.527H491.435ZM489.983 229.777V238.057H481.807V229.777H489.983Z" fill="#2770F1"/>
<path d="M511.144 229.045H520.772V238.795H511.144V229.045Z" fill="#2770F1"/>
<path d="M551.555 239.527V228.308H540.476V239.527H551.555ZM550.103 229.777V238.057H541.927V229.777H550.103Z" fill="#2770F1"/>
<path d="M556.231 229.045H565.859V238.795H556.231V229.045Z" fill="#2770F1"/>
<path d="M571.264 229.045H580.892V238.795H571.264V229.045Z" fill="#2770F1"/>
<path d="M135.386 244.263H145.014V254.012H135.386V244.263Z" fill="#2770F1"/>
<path d="M150.413 244.263H160.041V254.012H150.413V244.263Z" fill="#2770F1"/>
<path d="M165.446 244.263H175.074V254.012H165.446V244.263Z" fill="#2770F1"/>
<path d="M195.506 244.263H205.134V254.012H195.506V244.263Z" fill="#2770F1"/>
<path d="M225.566 244.263H235.194V254.012H225.566V244.263Z" fill="#2770F1"/>
<path d="M240.599 244.263H250.227V254.012H240.599V244.263Z" fill="#2770F1"/>
<path d="M270.659 244.263H280.287V254.012H270.659V244.263Z" fill="#2770F1"/>
<path d="M300.719 244.263H310.347V254.012H300.719V244.263Z" fill="#2770F1"/>
<path d="M315.746 244.263H325.374V254.012H315.746V244.263Z" fill="#2770F1"/>
<path d="M330.779 244.263H340.406V254.012H330.779V244.263Z" fill="#2770F1"/>
<path d="M360.839 244.263H370.466V254.012H360.839V244.263Z" fill="#2770F1"/>
<path d="M416.282 254.75V243.531H405.203V254.75H416.282ZM414.831 245V253.28H406.654V245H414.831Z" fill="#2770F1"/>
<path d="M435.991 244.263H445.619V254.012H435.991V244.263Z" fill="#2770F1"/>
<path d="M451.018 244.263H460.646V254.012H451.018V244.263Z" fill="#2770F1"/>
<path d="M476.402 254.75V243.531H465.323V254.75H476.402ZM474.951 245V253.28H466.774V245H474.951Z" fill="#2770F1"/>
<path d="M491.435 254.75V243.531H480.356V254.75H491.435ZM489.983 245V253.28H481.807V245H489.983Z" fill="#2770F1"/>
<path d="M506.468 254.75V243.531H495.389V254.75H506.468ZM505.016 245V253.28H496.84V245H505.016Z" fill="#2770F1"/>
<path d="M511.144 244.263H520.772V254.012H511.144V244.263Z" fill="#2770F1"/>
<path d="M526.171 244.263H535.799V254.012H526.171V244.263Z" fill="#2770F1"/>
<path d="M541.204 244.263H550.832V254.012H541.204V244.263Z" fill="#2770F1"/>
<path d="M556.231 244.263H565.859V254.012H556.231V244.263Z" fill="#2770F1"/>
<path d="M586.291 244.263H595.919V254.012H586.291V244.263Z" fill="#2770F1"/>
<path d="M135.386 259.486H145.014V269.236H135.386V259.486Z" fill="#2770F1"/>
<path d="M165.446 259.486H175.074V269.236H165.446V259.486Z" fill="#2770F1"/>
<path d="M210.539 259.486H220.167V269.236H210.539V259.486Z" fill="#2770F1"/>
<path d="M240.599 259.486H250.227V269.236H240.599V259.486Z" fill="#2770F1"/>
<path d="M255.626 259.486H265.254V269.236H255.626V259.486Z" fill="#2770F1"/>
<path d="M270.659 259.486H280.287V269.236H270.659V259.486Z" fill="#2770F1"/>
<path d="M296.042 269.967V258.748H284.963V269.967H296.042ZM294.591 260.218V268.498H286.414V260.218H294.591Z" fill="#2770F1"/>
<path d="M311.069 269.967V258.748H299.99V269.967H311.069ZM309.618 260.218V268.498H301.441V260.218H309.618Z" fill="#2770F1"/>
<path d="M326.102 269.967V258.748H315.023V269.967H326.102ZM324.651 260.218V268.498H316.474V260.218H324.651Z" fill="#2770F1"/>
<path d="M373.59 257.175H383.218V266.925H373.59V257.175Z" fill="#2770F1"/>
<path d="M405.932 259.486H415.559V269.236H405.932V259.486Z" fill="#2770F1"/>
<path d="M420.958 259.486H430.586V269.236H420.958V259.486Z" fill="#2770F1"/>
<path d="M435.991 259.486H445.619V269.236H435.991V259.486Z" fill="#2770F1"/>
<path d="M451.018 259.486H460.646V269.236H451.018V259.486Z" fill="#2770F1"/>
<path d="M466.051 259.486H475.679V269.236H466.051V259.486Z" fill="#2770F1"/>
<path d="M481.078 259.486H490.706V269.236H481.078V259.486Z" fill="#2770F1"/>
<path d="M496.111 259.486H505.739V269.236H496.111V259.486Z" fill="#2770F1"/>
<path d="M526.171 259.486H535.799V269.236H526.171V259.486Z" fill="#2770F1"/>
<path d="M556.231 259.486H565.859V269.236H556.231V259.486Z" fill="#2770F1"/>
<path d="M225.566 274.703H235.194V284.453H225.566V274.703Z" fill="#2770F1"/>
<path d="M255.626 274.703H265.254V284.453H255.626V274.703Z" fill="#2770F1"/>
<path d="M311.069 285.191V273.971H299.99V285.191H311.069ZM309.618 275.441V283.721H301.441V275.441H309.618Z" fill="#2770F1"/>
<path d="M326.102 285.191V273.971H315.023V285.191H326.102ZM324.651 275.441V283.721H316.474V275.441H324.651Z" fill="#2770F1"/>
<path d="M330.779 274.703H340.406V284.453H330.779V274.703Z" fill="#2770F1"/>
<path d="M375.871 274.703H385.499V284.453H375.871V274.703Z" fill="#2770F1"/>
<path d="M405.932 274.703H415.559V284.453H405.932V274.703Z" fill="#2770F1"/>
<path d="M435.991 274.703H445.619V284.453H435.991V274.703Z" fill="#2770F1"/>
<path d="M451.018 274.703H460.646V284.453H451.018V274.703Z" fill="#2770F1"/>
<path d="M466.051 274.703H475.679V284.453H466.051V274.703Z" fill="#2770F1"/>
<path d="M481.078 274.703H490.706V284.453H481.078V274.703Z" fill="#2770F1"/>
<path d="M493.83 272.399H503.458V282.149H493.83V272.399Z" fill="#2770F1"/>
<path d="M511.144 274.703H520.772V284.453H511.144V274.703Z" fill="#2770F1"/>
<path d="M541.204 274.703H550.832V284.453H541.204V274.703Z" fill="#2770F1"/>
<path d="M556.231 274.703H565.859V284.453H556.231V274.703Z" fill="#2770F1"/>
<path d="M581.615 285.191V273.971H570.535V285.191H581.615ZM580.163 275.441V283.721H571.987V275.441H580.163Z" fill="#2770F1"/>
<path d="M586.291 274.703H595.919V284.453H586.291V274.703Z" fill="#2770F1"/>
<path d="M135.386 289.926H145.014V299.676H135.386V289.926Z" fill="#2770F1"/>
<path d="M160.77 300.414V289.195H149.69V300.414H160.77ZM159.318 290.664V298.944H151.142V290.664H159.318Z" fill="#2770F1"/>
<path d="M175.797 300.414V289.195H164.718V300.414H175.797ZM174.345 290.664V298.944H166.169V290.664H174.345Z" fill="#2770F1"/>
<path d="M210.539 289.926H220.167V299.676H210.539V289.926Z" fill="#2770F1"/>
<path d="M240.599 289.926H250.227V299.676H240.599V289.926Z" fill="#2770F1"/>
<path d="M270.659 289.926H280.287V299.676H270.659V289.926Z" fill="#2770F1"/>
<path d="M285.686 289.926H295.313V299.676H285.686V289.926Z" fill="#2770F1"/>
<path d="M315.746 289.926H325.374V299.676H315.746V289.926Z" fill="#2770F1"/>
<path d="M330.779 289.926H340.406V299.676H330.779V289.926Z" fill="#2770F1"/>
<path d="M390.899 289.926H400.526V299.676H390.899V289.926Z" fill="#2770F1"/>
<path d="M403.65 287.616H413.278V297.366H403.65V287.616Z" fill="#2770F1"/>
<path d="M446.342 300.414V289.195H435.263V300.414H446.342ZM444.89 290.664V298.944H436.714V290.664H444.89Z" fill="#2770F1"/>
<path d="M491.435 300.414V289.195H480.356V300.414H491.435ZM489.983 290.664V298.944H481.807V290.664H489.983Z" fill="#2770F1"/>
<path d="M496.111 289.926H505.739V299.676H496.111V289.926Z" fill="#2770F1"/>
<path d="M511.144 289.926H520.772V299.676H511.144V289.926Z" fill="#2770F1"/>
<path d="M526.171 289.926H535.799V299.676H526.171V289.926Z" fill="#2770F1"/>
<path d="M541.204 289.926H550.832V299.676H541.204V289.926Z" fill="#2770F1"/>
<path d="M581.615 300.414V289.195H570.535V300.414H581.615ZM580.163 290.664V298.944H571.987V290.664H580.163Z" fill="#2770F1"/>
<path d="M115.677 315.631V304.412H104.598V315.631H115.677ZM114.225 305.882V314.162H106.049V305.882H114.225Z" fill="#2770F1"/>
<path d="M165.446 305.15H175.074V314.9H165.446V305.15Z" fill="#2770F1"/>
<path d="M190.83 315.631V304.412H179.75V315.631H190.83ZM189.378 305.882V314.162H181.202V305.882H189.378Z" fill="#2770F1"/>
<path d="M210.539 305.15H220.167V314.9H210.539V305.15Z" fill="#2770F1"/>
<path d="M225.566 305.15H235.194V314.9H225.566V305.15Z" fill="#2770F1"/>
<path d="M285.686 305.15H295.313V314.9H285.686V305.15Z" fill="#2770F1"/>
<path d="M300.719 305.15H310.347V314.9H300.719V305.15Z" fill="#2770F1"/>
<path d="M330.779 305.15H340.406V314.9H330.779V305.15Z" fill="#2770F1"/>
<path d="M375.871 305.15H385.499V314.9H375.871V305.15Z" fill="#2770F1"/>
<path d="M388.617 302.839H398.245V312.589H388.617V302.839Z" fill="#2770F1"/>
<path d="M405.932 305.15H415.559V314.9H405.932V305.15Z" fill="#2770F1"/>
<path d="M420.958 305.15H430.586V314.9H420.958V305.15Z" fill="#2770F1"/>
<path d="M446.342 315.631V304.412H435.263V315.631H446.342ZM444.89 305.882V314.162H436.714V305.882H444.89Z" fill="#2770F1"/>
<path d="M496.111 305.15H505.739V314.9H496.111V305.15Z" fill="#2770F1"/>
<path d="M536.528 315.631V304.412H525.448V315.631H536.528ZM535.076 305.882V314.162H526.9V305.882H535.076Z" fill="#2770F1"/>
<path d="M581.615 315.631V304.412H570.535V315.631H581.615ZM580.163 305.882V314.162H571.987V305.882H580.163Z" fill="#2770F1"/>
<path d="M596.647 315.631V304.412H585.568V315.631H596.647ZM595.196 305.882V314.162H587.02V305.882H595.196Z" fill="#2770F1"/>
<path d="M300.719 320.367H310.347V330.117H300.719V320.367Z" fill="#2770F1"/>
<path d="M255.626 320.367H265.254V330.117H255.626V320.367Z" fill="#2770F1"/>
<path d="M315.746 320.367H325.374V330.117H315.746V320.367Z" fill="#2770F1"/>
<path d="M405.932 320.367H415.559V330.117H405.932V320.367Z" fill="#2770F1"/>
<path d="M481.078 320.367H490.706V330.117H481.078V320.367Z" fill="#2770F1"/>
<path d="M496.111 320.367H505.739V330.117H496.111V320.367Z" fill="#2770F1"/>
<path d="M511.144 320.367H520.772V330.117H511.144V320.367Z" fill="#2770F1"/>
<path d="M536.528 330.855V319.635H525.448V330.855H536.528ZM535.076 321.105V329.385H526.9V321.105H535.076Z" fill="#2770F1"/>
<path d="M551.555 330.855V319.635H540.476V330.855H551.555ZM550.103 321.105V329.385H541.927V321.105H550.103Z" fill="#2770F1"/>
<path d="M120.353 335.59H129.981V345.34H120.353V335.59Z" fill="#2770F1"/>
<path d="M135.386 335.59H145.014V345.34H135.386V335.59Z" fill="#2770F1"/>
<path d="M180.473 335.59H190.101V345.34H180.473V335.59Z" fill="#2770F1"/>
<path d="M195.506 335.59H205.134V345.34H195.506V335.59Z" fill="#2770F1"/>
<path d="M210.539 335.59H220.167V345.34H210.539V335.59Z" fill="#2770F1"/>
<path d="M235.922 346.072V334.853H224.843V346.072H235.922ZM234.471 336.322V344.602H226.295V336.322H234.471Z" fill="#2770F1"/>
<path d="M240.599 335.59H250.227V345.34H240.599V335.59Z" fill="#2770F1"/>
<path d="M296.042 346.072V334.853H284.963V346.072H296.042ZM294.591 336.322V344.602H286.414V336.322H294.591Z" fill="#2770F1"/>
<path d="M311.069 346.072V334.853H299.99V346.072H311.069ZM309.618 336.322V344.602H301.441V336.322H309.618Z" fill="#2770F1"/>
<path d="M326.102 346.072V334.853H315.023V346.072H326.102ZM324.651 336.322V344.602H316.474V336.322H324.651Z" fill="#2770F1"/>
<path d="M345.806 335.59H355.433V345.34H345.806V335.59Z" fill="#2770F1"/>
<path d="M375.871 335.59H385.499V345.34H375.871V335.59Z" fill="#2770F1"/>
<path d="M416.282 346.072V334.853H405.203V346.072H416.282ZM414.831 336.322V344.602H406.654V336.322H414.831Z" fill="#2770F1"/>
<path d="M420.958 335.59H430.586V345.34H420.958V335.59Z" fill="#2770F1"/>
<path d="M450.732 462.675V451.456H439.653V462.675H450.732ZM449.28 452.926V461.206H441.104V452.926H449.28Z" fill="#2770F1"/>
<path d="M476.402 346.072V334.853H465.323V346.072H476.402ZM474.951 336.322V344.602H466.774V336.322H474.951Z" fill="#2770F1"/>
<path d="M491.435 346.072V334.853H480.356V346.072H491.435ZM489.983 336.322V344.602H481.807V336.322H489.983Z" fill="#2770F1"/>
<path d="M506.468 346.072V334.853H495.389V346.072H506.468ZM505.016 336.322V344.602H496.84V336.322H505.016Z" fill="#2770F1"/>
<path d="M551.555 346.072V334.853H540.476V346.072H551.555ZM550.103 336.322V344.602H541.927V336.322H550.103Z" fill="#2770F1"/>
<path d="M240.599 350.808H250.227V360.557H240.599V350.808Z" fill="#2770F1"/>
<path d="M255.626 350.808H265.254V360.557H255.626V350.808Z" fill="#2770F1"/>
<path d="M270.659 350.808H280.287V360.557H270.659V350.808Z" fill="#2770F1"/>
<path d="M296.042 361.295V350.076H284.963V361.295H296.042ZM294.591 351.546V359.826H286.414V351.546H294.591Z" fill="#2770F1"/>
<path d="M326.102 361.295V350.076H315.023V361.295H326.102ZM324.651 351.546V359.826H316.474V351.546H324.651Z" fill="#2770F1"/>
<path d="M330.779 350.808H340.406V360.557H330.779V350.808Z" fill="#2770F1"/>
<path d="M345.806 350.808H355.433V360.557H345.806V350.808Z" fill="#2770F1"/>
<path d="M373.59 348.503H383.218V358.253H373.59V348.503Z" fill="#2770F1"/>
<path d="M390.899 350.808H400.526V360.557H390.899V350.808Z" fill="#2770F1"/>
<path d="M420.958 350.808H430.586V360.557H420.958V350.808Z" fill="#2770F1"/>
<path d="M446.342 361.295V350.076H435.263V361.295H446.342ZM444.89 351.546V359.826H436.714V351.546H444.89Z" fill="#2770F1"/>
<path d="M461.375 361.295V350.076H450.296V361.295H461.375ZM459.923 351.546V359.826H451.747V351.546H459.923Z" fill="#2770F1"/>
<path d="M476.402 361.295V350.076H465.323V361.295H476.402ZM474.951 351.546V359.826H466.774V351.546H474.951Z" fill="#2770F1"/>
<path d="M481.078 350.808H490.706V360.557H481.078V350.808Z" fill="#2770F1"/>
<path d="M496.111 350.808H505.739V360.557H496.111V350.808Z" fill="#2770F1"/>
<path d="M511.144 350.808H520.772V360.557H511.144V350.808Z" fill="#2770F1"/>
<path d="M526.171 350.808H535.799V360.557H526.171V350.808Z" fill="#2770F1"/>
<path d="M135.386 366.031H145.014V375.781H135.386V366.031Z" fill="#2770F1"/>
<path d="M165.446 366.031H175.074V375.781H165.446V366.031Z" fill="#2770F1"/>
<path d="M195.506 366.031H205.134V375.781H195.506V366.031Z" fill="#2770F1"/>
<path d="M210.539 366.031H220.167V375.781H210.539V366.031Z" fill="#2770F1"/>
<path d="M270.659 366.031H280.287V375.781H270.659V366.031Z" fill="#2770F1"/>
<path d="M296.042 376.513V365.293H284.963V376.513H296.042ZM294.591 366.763V375.043H286.414V366.763H294.591Z" fill="#2770F1"/>
<path d="M326.102 376.513V365.293H315.023V376.513H326.102ZM324.651 366.763V375.043H316.474V366.763H324.651Z" fill="#2770F1"/>
<path d="M330.779 366.031H340.406V375.781H330.779V366.031Z" fill="#2770F1"/>
<path d="M375.871 366.031H385.499V375.781H375.871V366.031Z" fill="#2770F1"/>
<path d="M390.899 366.031H400.526V375.781H390.899V366.031Z" fill="#2770F1"/>
<path d="M405.932 366.031H415.559V375.781H405.932V366.031Z" fill="#2770F1"/>
<path d="M420.958 366.031H430.586V375.781H420.958V366.031Z" fill="#2770F1"/>
<path d="M446.342 376.513V365.293H435.263V376.513H446.342ZM444.89 366.763V375.043H436.714V366.763H444.89Z" fill="#2770F1"/>
<path d="M476.402 376.513V365.293H465.323V376.513H476.402ZM474.951 366.763V375.043H466.774V366.763H474.951Z" fill="#2770F1"/>
<path d="M511.144 366.031H520.772V375.781H511.144V366.031Z" fill="#2770F1"/>
<path d="M541.204 366.031H550.832V375.781H541.204V366.031Z" fill="#2770F1"/>
<path d="M556.231 366.031H565.859V375.781H556.231V366.031Z" fill="#2770F1"/>
<path d="M586.291 366.031H595.919V375.781H586.291V366.031Z" fill="#2770F1"/>
<path d="M190.83 391.736V380.516H179.75V391.736H190.83ZM189.378 381.986V390.266H181.202V381.986H189.378Z" fill="#2770F1"/>
<path d="M210.539 381.248H220.167V390.998H210.539V381.248Z" fill="#2770F1"/>
<path d="M240.599 381.248H250.227V390.998H240.599V381.248Z" fill="#2770F1"/>
<path d="M255.626 381.248H265.254V390.998H255.626V381.248Z" fill="#2770F1"/>
<path d="M345.806 381.248H355.433V390.998H345.806V381.248Z" fill="#2770F1"/>
<path d="M390.899 381.248H400.526V390.998H390.899V381.248Z" fill="#2770F1"/>
<path d="M420.958 381.248H430.586V390.998H420.958V381.248Z" fill="#2770F1"/>
<path d="M446.342 391.736V380.516H435.263V391.736H446.342ZM444.89 381.986V390.266H436.714V381.986H444.89Z" fill="#2770F1"/>
<path d="M461.375 391.736V380.516H450.296V391.736H461.375ZM459.923 381.986V390.266H451.747V381.986H459.923Z" fill="#2770F1"/>
<path d="M476.402 391.736V380.516H465.323V391.736H476.402ZM474.951 381.986V390.266H466.774V381.986H474.951Z" fill="#2770F1"/>
<path d="M481.078 381.248H490.706V390.998H481.078V381.248Z" fill="#2770F1"/>
<path d="M496.111 381.248H505.739V390.998H496.111V381.248Z" fill="#2770F1"/>
<path d="M526.171 381.248H535.799V390.998H526.171V381.248Z" fill="#2770F1"/>
<path d="M541.204 381.248H550.832V390.998H541.204V381.248Z" fill="#2770F1"/>
<path d="M556.231 381.248H565.859V390.998H556.231V381.248Z" fill="#2770F1"/>
<path d="M571.264 381.248H580.892V390.998H571.264V381.248Z" fill="#2770F1"/>
<path d="M586.291 381.248H595.919V390.998H586.291V381.248Z" fill="#2770F1"/>
<path d="M150.413 396.472H160.041V406.221H150.413V396.472Z" fill="#2770F1"/>
<path d="M210.539 396.472H220.167V406.221H210.539V396.472Z" fill="#2770F1"/>
<path d="M225.566 396.472H235.194V406.221H225.566V396.472Z" fill="#2770F1"/>
<path d="M255.626 396.472H265.254V406.221H255.626V396.472Z" fill="#2770F1"/>
<path d="M326.102 406.953V395.734H315.023V406.953H326.102ZM324.651 397.203V405.483H316.474V397.203H324.651Z" fill="#2770F1"/>
<path d="M375.871 396.472H385.499V406.221H375.871V396.472Z" fill="#2770F1"/>
<path d="M390.899 396.472H400.526V406.221H390.899V396.472Z" fill="#2770F1"/>
<path d="M405.932 396.472H415.559V406.221H405.932V396.472Z" fill="#2770F1"/>
<path d="M420.958 396.472H430.586V406.221H420.958V396.472Z" fill="#2770F1"/>
<path d="M506.468 406.953V395.734H495.389V406.953H506.468ZM505.016 397.203V405.483H496.84V397.203H505.016Z" fill="#2770F1"/>
<path d="M536.528 406.953V395.734H525.448V406.953H536.528ZM535.076 397.203V405.483H526.9V397.203H535.076Z" fill="#2770F1"/>
<path d="M551.555 406.953V395.734H540.476V406.953H551.555ZM550.103 397.203V405.483H541.927V397.203H550.103Z" fill="#2770F1"/>
<path d="M571.264 396.472H580.892V406.221H571.264V396.472Z" fill="#2770F1"/>
<path d="M150.413 411.689H160.041V421.439H150.413V411.689Z" fill="#2770F1"/>
<path d="M195.506 411.689H205.134V421.439H195.506V411.689Z" fill="#2770F1"/>
<path d="M601.252 275.574H610.88V285.324H601.252V275.574Z" fill="#2770F1"/>
<path d="M631.312 275.574H640.94V285.324H631.312V275.574Z" fill="#2770F1"/>
<path d="M661.372 275.574H671V285.324H661.372V275.574Z" fill="#2770F1"/>
<path d="M646.339 290.791H655.967V300.541H646.339V290.791Z" fill="#2770F1"/>
<path d="M616.279 306.015H625.907V315.765H616.279V306.015Z" fill="#2770F1"/>
<path d="M616.279 321.232H625.907V330.982H616.279V321.232Z" fill="#2770F1"/>
<path d="M661.372 321.232H671V330.982H661.372V321.232Z" fill="#2770F1"/>
<path d="M210.539 411.689H220.167V421.439H210.539V411.689Z" fill="#2770F1"/>
<path d="M255.626 411.689H265.254V421.439H255.626V411.689Z" fill="#2770F1"/>
<path d="M360.839 411.689H370.466V421.439H360.839V411.689Z" fill="#2770F1"/>
<path d="M390.899 411.689H400.526V421.439H390.899V411.689Z" fill="#2770F1"/>
<path d="M405.932 411.689H415.559V421.439H405.932V411.689Z" fill="#2770F1"/>
<path d="M446.342 422.176V410.957H435.263V422.176H446.342ZM444.89 412.427V420.707H436.714V412.427H444.89Z" fill="#2770F1"/>
<path d="M461.375 422.176V410.957H450.296V422.176H461.375ZM459.923 412.427V420.707H451.747V412.427H459.923Z" fill="#2770F1"/>
<path d="M476.402 422.176V410.957H465.323V422.176H476.402ZM474.951 412.427V420.707H466.774V412.427H474.951Z" fill="#2770F1"/>
<path d="M521.495 422.176V410.957H510.416V422.176H521.495ZM520.043 412.427V420.707H511.867V412.427H520.043Z" fill="#2770F1"/>
<path d="M240.599 426.912H250.227V436.662H240.599V426.912Z" fill="#2770F1"/>
<path d="M326.102 437.394V426.174H315.023V437.394H326.102ZM324.651 427.644V435.924H316.474V427.644H324.651Z" fill="#2770F1"/>
<path d="M360.839 426.912H370.466V436.662H360.839V426.912Z" fill="#2770F1"/>
<path d="M386.222 437.394V426.174H375.143V437.394H386.222ZM384.771 427.644V435.924H376.594V427.644H384.771Z" fill="#2770F1"/>
<path d="M390.899 426.912H400.526V436.662H390.899V426.912Z" fill="#2770F1"/>
<path d="M476.402 437.394V426.174H465.323V437.394H476.402ZM474.951 427.644V435.924H466.774V427.644H474.951Z" fill="#2770F1"/>
<path d="M506.468 437.394V426.174H495.389V437.394H506.468ZM505.016 427.644V435.924H496.84V427.644H505.016Z" fill="#2770F1"/>
<path d="M521.495 437.394V426.174H510.416V437.394H521.495ZM520.043 427.644V435.924H511.867V427.644H520.043Z" fill="#2770F1"/>
</g>
</svg>
